# xmcd
#
# Track frame offsets:
#	150
#	14390
#	30069
#	42247
#	57190
#
# Disc length: 907 seconds
#
# Revision: 0
# Processed by: cddbd v1.5.2PL0 Copyright (c) Steve Scherf et al.
# Submitted via: audiograbber 1.83.01
#
DISCID=2e038905
DTITLE=Various Artist - AXR PromoCD 51
DYEAR=1995
DGENRE=Pop
TTITLE0=Jaakko Teppo - Ja Niill‰ Kaikilla On Niin Mukavoo
TTITLE1=Arja Havakka - Majakka
TTITLE2=Pekka Hartonen Ja Suomen Tanssiorkesteri - Haitari Ja Kes‰
TTITLE3=Tiina R‰s‰nen - J‰‰ Mun Luoksein J‰‰
TTITLE4=Vilperin Perikunta - Vapauttakaa Johnny!
EXTD=TR.
EXTT0=
EXTT1=
EXTT2=
EXTT3=
EXTT4=
PLAYORDER=
